<svg xmlns="http://www.w3.org/2000/svg" viewBox="0 0 128 128" shape-rendering="crispEdges">
  <title>Black Queen - Shadow Archmage 462</title>
  <rect width="128" height="128" fill="none"/>
  <rect x="26" y="104" width="76" height="10" fill="#050606"/>
  <rect x="34" y="94" width="60" height="10" fill="#343a37"/>
  <rect x="42" y="54" width="44" height="40" fill="#2b222f"/>
  <rect x="52" y="40" width="24" height="18" fill="#6f5547"/>
  <rect x="42" y="30" width="12" height="14" fill="#aeb8bd"/>
  <rect x="58" y="22" width="12" height="22" fill="#eef3f5"/>
  <rect x="74" y="30" width="12" height="14" fill="#aeb8bd"/>
  <rect x="48" y="40" width="32" height="8" fill="#7f8a90"/>
  <rect x="34" y="62" width="12" height="28" fill="#1b2021"/>
  <rect x="82" y="62" width="12" height="28" fill="#1b2021"/>
  <rect x="54" y="68" width="20" height="20" fill="#9b4055"/>
  <rect x="58" y="45" width="4" height="4" fill="#050606"/>
  <rect x="70" y="45" width="4" height="4" fill="#050606"/>
  <rect x="92" y="26" width="12" height="12" fill="#d65f7a"/>
  <rect x="96" y="22" width="4" height="20" fill="#f3b1c0"/>
</svg>
