<svg xmlns="http://www.w3.org/2000/svg" viewBox="0 0 128 128" shape-rendering="crispEdges">
  <title>Black Spearman</title>
  <rect width="128" height="128" fill="none"/>
  <rect x="34" y="104" width="60" height="8" fill="#151616"/>
  <rect x="42" y="94" width="44" height="10" fill="#343a37"/>
  <rect x="44" y="58" width="40" height="36" fill="#202625"/>
  <rect x="52" y="46" width="24" height="18" fill="#6f5547"/>
  <rect x="48" y="34" width="32" height="10" fill="#171a19"/>
  <rect x="52" y="26" width="24" height="8" fill="#59635d"/>
  <rect x="59" y="48" width="4" height="4" fill="#050606"/>
  <rect x="70" y="48" width="4" height="4" fill="#050606"/>
  <rect x="38" y="66" width="10" height="24" fill="#161a19"/>
  <rect x="80" y="66" width="10" height="24" fill="#161a19"/>
  <rect x="50" y="74" width="28" height="8" fill="#9b4055"/>
  <rect x="94" y="20" width="4" height="84" fill="#2a2017"/>
  <rect x="90" y="12" width="12" height="12" fill="#8f989d"/>
  <rect x="92" y="8" width="8" height="4" fill="#d9dde0"/>
  <rect x="88" y="24" width="16" height="4" fill="#59635d"/>
</svg>
