<svg xmlns="http://www.w3.org/2000/svg" viewBox="0 0 128 128" shape-rendering="crispEdges">
  <title>White Queen - Archmage 462</title>
  <rect width="128" height="128" fill="none"/>
  <rect x="26" y="104" width="76" height="10" fill="#6b5638"/>
  <rect x="34" y="94" width="60" height="10" fill="#d7c099"/>
  <rect x="42" y="54" width="44" height="40" fill="#f1e3ff"/>
  <rect x="52" y="40" width="24" height="18" fill="#f0c6a0"/>
  <rect x="42" y="30" width="12" height="14" fill="#e0bd5a"/>
  <rect x="58" y="22" width="12" height="22" fill="#e0bd5a"/>
  <rect x="74" y="30" width="12" height="14" fill="#e0bd5a"/>
  <rect x="48" y="40" width="32" height="8" fill="#fff2a8"/>
  <rect x="34" y="62" width="12" height="28" fill="#b37adb"/>
  <rect x="82" y="62" width="12" height="28" fill="#b37adb"/>
  <rect x="54" y="68" width="20" height="20" fill="#7c4db1"/>
  <rect x="58" y="45" width="4" height="4" fill="#3b3227"/>
  <rect x="70" y="45" width="4" height="4" fill="#3b3227"/>
  <rect x="92" y="26" width="12" height="12" fill="#9be7ff"/>
  <rect x="96" y="22" width="4" height="20" fill="#ffffff"/>
</svg>
