<svg xmlns="http://www.w3.org/2000/svg" viewBox="0 0 128 128" shape-rendering="crispEdges">
  <title>White Pawn - Recruit 51</title>
  <rect width="128" height="128" fill="none"/>
  <rect x="34" y="102" width="60" height="10" fill="#6b5638"/>
  <rect x="42" y="92" width="44" height="10" fill="#d7c099"/>
  <rect x="44" y="56" width="40" height="36" fill="#f4e9cf"/>
  <rect x="52" y="46" width="24" height="18" fill="#f0c6a0"/>
  <rect x="56" y="24" width="16" height="4" fill="#fff8df"/>
  <rect x="50" y="28" width="28" height="4" fill="#fff8df"/>
  <rect x="46" y="32" width="36" height="8" fill="#e6d3a8"/>
  <rect x="42" y="40" width="44" height="8" fill="#c3ac78"/>
  <rect x="50" y="40" width="28" height="6" fill="#f8f1dc"/>
  <rect x="44" y="46" width="40" height="4" fill="#6b5638"/>
  <rect x="38" y="64" width="10" height="24" fill="#c7b184"/>
  <rect x="80" y="64" width="10" height="24" fill="#c7b184"/>
  <rect x="50" y="72" width="28" height="8" fill="#7bb15b"/>
  <rect x="58" y="48" width="4" height="4" fill="#3b3227"/>
  <rect x="70" y="48" width="4" height="4" fill="#3b3227"/>
</svg>
